<svg width="357" height="72" viewBox="0 0 357 72" xmlns="http://www.w3.org/2000/svg"><title>Horizontal - Outlines</title><g fill="none" fill-rule="evenodd"><path d="M95.616 7.68H81.112v3.584h4.984V27h4.536V11.264h4.984V7.68zm12.264 11.34l4.9 7.98h-5.264l-4.06-7.392h-1.428V27h-4.536V7.68h6.944c2.156 0 3.836.448 5.096 1.372 1.288.952 2.128 2.492 2.128 4.424 0 3.668-2.352 5.096-3.78 5.544zm-.784-5.376c0-.98-.392-1.54-.98-1.96-.56-.42-1.288-.504-2.324-.504H102v4.956h1.792c1.036 0 1.764-.112 2.324-.532.588-.42.98-.952.98-1.96zm23.24-5.964h-4.564v11.256c0 1.372-.112 2.436-.756 3.22-.616.728-1.512 1.204-2.772 1.204-1.26 0-2.156-.476-2.772-1.204-.644-.784-.756-1.848-.756-3.22V7.68h-4.564v11.256c0 2.716.476 4.592 1.82 6.076 1.372 1.456 3.444 2.296 6.272 2.296 2.8 0 4.9-.84 6.244-2.296 1.372-1.484 1.848-3.36 1.848-6.076V7.68zm16.156 15.652h-8.26v-4.48h7.56V15.24h-7.56v-3.948h8.008V7.68h-12.516V27h12.768v-3.668zm22.932-2.156c-1.064 1.092-2.8 2.044-5.208 2.044-3.164 0-5.796-2.156-5.796-5.936s2.52-5.964 5.796-5.964c2.548 0 4.62 1.54 4.984 2.016l1.4-3.752c-.504-.532-2.66-2.184-6.636-2.184-5.628 0-10.136 3.724-10.136 9.968 0 6.216 4.452 9.968 10.136 9.968 3.948 0 5.992-1.624 6.972-2.632l-1.512-3.528zm13.972-2.156l4.9 7.98h-5.264l-4.06-7.392h-1.428V27h-4.536V7.68h6.944c2.156 0 3.836.448 5.096 1.372 1.288.952 2.128 2.492 2.128 4.424 0 3.668-2.352 5.096-3.78 5.544zm-.784-5.376c0-.98-.392-1.54-.98-1.96-.56-.42-1.288-.504-2.324-.504h-1.792v4.956h1.792c1.036 0 1.764-.112 2.324-.532.588-.42.98-.952.98-1.96zm11.732-5.964h-4.536V27h4.536V7.68zm23.772 0h-5.74L208.4 20.392h-.056L204.312 7.68H198.6L197.144 27h4.452l.7-13.16h.084L206.552 27h3.584l4.144-13.16h.056l.756 13.16h4.452l-1.428-19.32zm16.996 15.652h-8.26v-4.48h7.56V15.24h-7.56v-3.948h8.008V7.68h-12.516V27h12.768v-3.668z" fill="#6b7c9f"/><path d="M97.228 52.03l7.35 11.97h-7.896l-6.09-11.088H88.45V64h-6.804V35.02h10.416c3.234 0 5.754.672 7.644 2.058 1.932 1.428 3.192 3.738 3.192 6.636 0 5.502-3.528 7.644-5.67 8.316zm-1.176-8.064c0-1.47-.588-2.31-1.47-2.94-.84-.63-1.932-.756-3.486-.756h-2.688v7.434h2.688c1.554 0 2.646-.168 3.486-.798.882-.63 1.47-1.428 1.47-2.94zm29.946 14.532h-12.39v-6.72h11.34V46.36h-11.34v-5.922h12.012V35.02h-18.774V64h19.152v-5.502zm23.772-3.318c0-2.604-1.05-4.368-2.268-5.586-1.302-1.302-3.234-2.058-4.032-2.352-.924-.378-3.066-1.134-4.326-1.638-1.302-.504-2.94-1.176-2.94-2.94s1.596-2.604 3.78-2.604c2.184 0 4.788 1.26 6.468 2.94l2.898-4.746c-1.974-1.974-5.838-3.57-9.198-3.57-3.36 0-6.006.924-7.644 2.31-1.68 1.386-3.024 3.57-3.024 6.342 0 2.73 1.008 4.41 2.268 5.586 1.26 1.218 2.73 1.764 3.444 2.1.966.42 3.15 1.176 4.41 1.638 1.26.462 3.402 1.218 3.402 3.192 0 1.932-1.68 2.982-3.864 2.982-2.226 0-5.46-1.47-7.56-3.654l-3.36 4.956c2.352 2.184 6.09 4.368 10.29 4.368 3.108 0 5.796-.756 7.854-2.394 2.1-1.638 3.402-4.158 3.402-6.93zm22.764 3.318h-12.39v-6.72h11.34V46.36h-11.34v-5.922h12.012V35.02h-18.774V64h19.152v-5.502zm19.362-23.52L202.816 64h-7.392l-2.058-5.838h-10.332L180.976 64h-7.056l10.92-29.022h7.056zm-7.308 17.892h7.224L188.2 42.454l-3.612 10.416zm36.288-.84l7.35 11.97h-7.896l-6.09-11.088h-2.142V64h-6.804V35.02h10.416c3.234 0 5.754.672 7.644 2.058 1.932 1.428 3.192 3.738 3.192 6.636 0 5.502-3.528 7.644-5.67 8.316zm-1.176-8.064c0-1.47-.588-2.31-1.47-2.94-.84-.63-1.932-.756-3.486-.756h-2.688v7.434h2.688c1.554 0 2.646-.168 3.486-.798.882-.63 1.47-1.428 1.47-2.94zm32.718 11.298c-1.596 1.638-4.2 3.066-7.812 3.066-4.746 0-8.694-3.234-8.694-8.904s3.78-8.946 8.694-8.946c3.822 0 6.93 2.31 7.476 3.024l2.1-5.628c-.756-.798-3.99-3.276-9.954-3.276-8.442 0-15.204 5.586-15.204 14.952 0 9.324 6.678 14.952 15.204 14.952 5.922 0 8.988-2.436 10.458-3.948l-2.268-5.292zm30.618-20.244h-6.804v11.214h-11.634V35.02h-6.804V64h6.804V51.862h11.634V64h6.804V35.02zm24.444 23.478h-12.39v-6.72h11.34V46.36h-11.34v-5.922h12.012V35.02h-18.774V64h19.152v-5.502zm19.782-6.468l7.35 11.97h-7.896l-6.09-11.088h-2.142V64h-6.804V35.02h10.416c3.234 0 5.754.672 7.644 2.058 1.932 1.428 3.192 3.738 3.192 6.636 0 5.502-3.528 7.644-5.67 8.316zm-1.176-8.064c0-1.47-.588-2.31-1.47-2.94-.84-.63-1.932-.756-3.486-.756h-2.688v7.434h2.688c1.554 0 2.646-.168 3.486-.798.882-.63 1.47-1.428 1.47-2.94zm30.366 11.214c0-2.604-1.05-4.368-2.268-5.586-1.302-1.302-3.234-2.058-4.032-2.352-.924-.378-3.066-1.134-4.326-1.638-1.302-.504-2.94-1.176-2.94-2.94s1.596-2.604 3.78-2.604c2.184 0 4.788 1.26 6.468 2.94l2.898-4.746c-1.974-1.974-5.838-3.57-9.198-3.57-3.36 0-6.006.924-7.644 2.31-1.68 1.386-3.024 3.57-3.024 6.342 0 2.73 1.008 4.41 2.268 5.586 1.26 1.218 2.73 1.764 3.444 2.1.966.42 3.15 1.176 4.41 1.638 1.26.462 3.402 1.218 3.402 3.192 0 1.932-1.68 2.982-3.864 2.982-2.226 0-5.46-1.47-7.56-3.654l-3.36 4.956c2.352 2.184 6.09 4.368 10.29 4.368 3.108 0 5.796-.756 7.854-2.394 2.1-1.638 3.402-4.158 3.402-6.93zM0 0v50.572C0 62.262 9.477 71.74 21.167 71.74H71.74v-7.416L34.973 27.557h15.735c2.187 0 3.96-1.773 3.96-3.96V21.04c0-2.193-1.777-3.97-3.97-3.97H17.072v33.628c0 2.192 1.778 3.97 3.97 3.97h6.518V34.973l28.23 28.232H21.17c-6.966 0-12.633-5.667-12.633-12.633V8.534h42.038c6.965 0 12.633 5.667 12.633 12.633v2.284c0 .17-.02.332-.025.498-.205 5.248-3.62 9.676-8.338 11.378L71.74 52.25V21.168C71.74 9.477 62.263 0 50.573 0H0z" fill="#4F5D78"/></g></svg>