<svg xmlns="http://www.w3.org/2000/svg" xmlns:xlink="http://www.w3.org/1999/xlink" x="0px" y="0px" width="64px" height="64px" viewBox="0 0 64 64"><path  fill="#8b99b3" d="M55,1H9C7.895,1,7,1.895,7,3v58c0,1.105,0.895,2,2,2h46c1.105,0,2-0.895,2-2V3C57,1.895,56.105,1,55,1z
 M17,16c0-0.552,0.447-1,1-1h10c0.553,0,1,0.448,1,1v10c0,0.552-0.447,1-1,1H18c-0.553,0-1-0.448-1-1V16z M46,47H18
c-0.553,0-1-0.448-1-1s0.447-1,1-1h28c0.553,0,1,0.448,1,1S46.553,47,46,47z M46,37H18c-0.553,0-1-0.448-1-1s0.447-1,1-1h28
c0.553,0,1,0.448,1,1S46.553,37,46,37z M46,27h-9c-0.553,0-1-0.448-1-1s0.447-1,1-1h9c0.553,0,1,0.448,1,1S46.553,27,46,27z M46,17
h-9c-0.553,0-1-0.448-1-1s0.447-1,1-1h9c0.553,0,1,0.448,1,1S46.553,17,46,17z"/></svg>
