<svg xmlns="http://www.w3.org/2000/svg" xmlns:xlink="http://www.w3.org/1999/xlink" x="0px" y="0px" width="64px" height="64px" viewBox="0 0 64 64"><g >
<path data-color="color-2" fill="#8b99b3" d="M61,17h-8v22c0,1.105-0.895,2-2,2H29.128l-9.143,8H39.68l13.739,9.813
C53.592,58.938,53.795,59,54,59c0.156,0,0.313-0.037,0.458-0.11C54.791,58.718,55,58.375,55,58v-9h6c1.105,0,2-0.895,2-2V19
C63,17.895,62.105,17,61,17z"/>
<path fill="#8b99b3" d="M49,3H3C1.895,3,1,3.895,1,5v32c0,1.105,0.895,2,2,2h8v13c0,0.393,0.229,0.748,0.587,0.91
C11.719,52.971,11.86,53,12,53c0.237,0,0.473-0.085,0.658-0.247L28.376,39H49c1.105,0,2-0.895,2-2V5C51,3.895,50.105,3,49,3z"/>
</g></svg>
