<svg xmlns="http://www.w3.org/2000/svg" viewBox="0 0 50 50"><path style="line-height:normal;text-indent:0;text-align:start;text-decoration-line:none;text-decoration-style:solid;text-decoration-color:#000;text-transform:none;block-progression:tb;isolation:auto;mix-blend-mode:normal" d="M25 2C12.31 2 2 12.31 2 25s10.31 23 23 23 23-10.31 23-23S37.69 2 25 2zm0 2c11.61 0 21 9.39 21 21s-9.39 21-21 21S4 36.61 4 25 13.39 4 25 4zm9.053 8a1.012 1.012 0 0 0-.227.016l-13.695 2.593A1.366 1.366 0 0 0 19 15.955v13.268a1 1 0 0 1-.754.968l-3.445.88-.291.07a3.513 3.513 0 0 0-2.47 3.882C12.311 36.786 13.98 38 15.765 38h.1C18.7 38 21 35.7 21 32.865V22.328c0-.676.485-1.254 1.15-1.371l9.676-1.883A1 1 0 0 1 33 20.06v6.164a1 1 0 0 1-.754.968l-3.445.88-.291.07a3.513 3.513 0 0 0-2.47 3.882C26.311 33.786 27.98 35 29.765 35h.1C32.7 35 35 32.7 35 29.865V13a1 1 0 0 0-.947-1z" font-weight="400" font-family="sans-serif" white-space="normal" overflow="visible"/></svg>