<svg id="Layer_1" data-name="Layer 1" xmlns="http://www.w3.org/2000/svg" width="62" height="62" viewBox="0 0 62 62"><title>website</title><path d="M56.43,2.26H6.14A3.39,3.39,0,0,0,2.54,5.85V13a3.39,3.39,0,0,0,3.59,3.59h50.3A3.39,3.39,0,0,0,60,13V5.85A3.39,3.39,0,0,0,56.43,2.26Z" style="fill:#8b99b3"/><path d="M13.32,23.81H6.14a3.39,3.39,0,0,0-3.59,3.59V56.15a3.39,3.39,0,0,0,3.59,3.59h7.19a3.39,3.39,0,0,0,3.59-3.59V27.41A3.39,3.39,0,0,0,13.32,23.81Z" style="fill:#8b99b3"/><path d="M56.43,23.81H27.69a3.39,3.39,0,0,0-3.59,3.59V56.15a3.39,3.39,0,0,0,3.59,3.59H56.43A3.39,3.39,0,0,0,60,56.15V27.41A3.39,3.39,0,0,0,56.43,23.81Z" style="fill:#8b99b3"/></svg>